<mxfile host="app.diagrams.net" agent="Mozilla/5.0 (Windows NT 10.0; Win64; x64) AppleWebKit/537.36 (KHTML, like Gecko) Chrome/128.0.0.0 Safari/537.36 Edg/128.0.0.0" version="24.7.12">
  <diagram name="Страница — 1" id="HnSuPaEmOFWjnddANBGZ">
    <mxGraphModel dx="674" dy="854" grid="1" gridSize="10" guides="1" tooltips="1" connect="1" arrows="1" fold="1" page="1" pageScale="1" pageWidth="827" pageHeight="1169" math="0" shadow="0">
      <root>
        <mxCell id="0" />
        <mxCell id="1" parent="0" />
        <mxCell id="AV5qR96ply4appD7XXTd-5" style="edgeStyle=orthogonalEdgeStyle;rounded=0;orthogonalLoop=1;jettySize=auto;html=1;exitX=0.5;exitY=1;exitDx=0;exitDy=0;entryX=0.5;entryY=0;entryDx=0;entryDy=0;" edge="1" parent="1" source="AV5qR96ply4appD7XXTd-3" target="AV5qR96ply4appD7XXTd-4">
          <mxGeometry relative="1" as="geometry" />
        </mxCell>
        <mxCell id="AV5qR96ply4appD7XXTd-3" value="Начало" style="ellipse;whiteSpace=wrap;html=1;" vertex="1" parent="1">
          <mxGeometry x="354" y="100" width="120" height="80" as="geometry" />
        </mxCell>
        <mxCell id="AV5qR96ply4appD7XXTd-7" style="edgeStyle=orthogonalEdgeStyle;rounded=0;orthogonalLoop=1;jettySize=auto;html=1;exitX=0.5;exitY=1;exitDx=0;exitDy=0;entryX=0.5;entryY=0;entryDx=0;entryDy=0;" edge="1" parent="1" source="AV5qR96ply4appD7XXTd-4" target="AV5qR96ply4appD7XXTd-6">
          <mxGeometry relative="1" as="geometry" />
        </mxCell>
        <mxCell id="AV5qR96ply4appD7XXTd-4" value="Создание двумерных массивов" style="rounded=0;whiteSpace=wrap;html=1;" vertex="1" parent="1">
          <mxGeometry x="354" y="240" width="120" height="60" as="geometry" />
        </mxCell>
        <mxCell id="AV5qR96ply4appD7XXTd-9" style="edgeStyle=orthogonalEdgeStyle;rounded=0;orthogonalLoop=1;jettySize=auto;html=1;exitX=0.5;exitY=1;exitDx=0;exitDy=0;entryX=0.5;entryY=0;entryDx=0;entryDy=0;" edge="1" parent="1" source="AV5qR96ply4appD7XXTd-6" target="AV5qR96ply4appD7XXTd-8">
          <mxGeometry relative="1" as="geometry" />
        </mxCell>
        <mxCell id="AV5qR96ply4appD7XXTd-6" value="Цикл по массивам" style="rounded=0;whiteSpace=wrap;html=1;" vertex="1" parent="1">
          <mxGeometry x="354" y="360" width="120" height="60" as="geometry" />
        </mxCell>
        <mxCell id="AV5qR96ply4appD7XXTd-12" style="edgeStyle=orthogonalEdgeStyle;rounded=0;orthogonalLoop=1;jettySize=auto;html=1;exitX=0;exitY=0.5;exitDx=0;exitDy=0;entryX=0.5;entryY=0;entryDx=0;entryDy=0;" edge="1" parent="1" source="AV5qR96ply4appD7XXTd-8" target="AV5qR96ply4appD7XXTd-10">
          <mxGeometry relative="1" as="geometry" />
        </mxCell>
        <mxCell id="AV5qR96ply4appD7XXTd-8" value="Проверка столбца" style="rhombus;whiteSpace=wrap;html=1;" vertex="1" parent="1">
          <mxGeometry x="374" y="470" width="80" height="80" as="geometry" />
        </mxCell>
        <mxCell id="AV5qR96ply4appD7XXTd-15" style="edgeStyle=orthogonalEdgeStyle;rounded=0;orthogonalLoop=1;jettySize=auto;html=1;exitX=1;exitY=0.5;exitDx=0;exitDy=0;entryX=0;entryY=0.5;entryDx=0;entryDy=0;" edge="1" parent="1" source="AV5qR96ply4appD7XXTd-10" target="AV5qR96ply4appD7XXTd-11">
          <mxGeometry relative="1" as="geometry" />
        </mxCell>
        <mxCell id="AV5qR96ply4appD7XXTd-16" style="edgeStyle=orthogonalEdgeStyle;rounded=0;orthogonalLoop=1;jettySize=auto;html=1;exitX=0;exitY=0.5;exitDx=0;exitDy=0;entryX=0.5;entryY=0;entryDx=0;entryDy=0;" edge="1" parent="1" source="AV5qR96ply4appD7XXTd-10" target="AV5qR96ply4appD7XXTd-14">
          <mxGeometry relative="1" as="geometry" />
        </mxCell>
        <mxCell id="AV5qR96ply4appD7XXTd-10" value="Все элементы кратны 5 или 7?" style="rhombus;whiteSpace=wrap;html=1;" vertex="1" parent="1">
          <mxGeometry x="238" y="550" width="136" height="130" as="geometry" />
        </mxCell>
        <mxCell id="AV5qR96ply4appD7XXTd-19" style="edgeStyle=orthogonalEdgeStyle;rounded=0;orthogonalLoop=1;jettySize=auto;html=1;exitX=0.5;exitY=0;exitDx=0;exitDy=0;entryX=1;entryY=0.5;entryDx=0;entryDy=0;" edge="1" parent="1" source="AV5qR96ply4appD7XXTd-11" target="AV5qR96ply4appD7XXTd-8">
          <mxGeometry relative="1" as="geometry" />
        </mxCell>
        <mxCell id="AV5qR96ply4appD7XXTd-11" value="Переход к следующему столбцу" style="rounded=0;whiteSpace=wrap;html=1;" vertex="1" parent="1">
          <mxGeometry x="474" y="585" width="120" height="60" as="geometry" />
        </mxCell>
        <mxCell id="AV5qR96ply4appD7XXTd-21" style="edgeStyle=orthogonalEdgeStyle;rounded=0;orthogonalLoop=1;jettySize=auto;html=1;exitX=0.5;exitY=1;exitDx=0;exitDy=0;entryX=0.5;entryY=0;entryDx=0;entryDy=0;" edge="1" parent="1" source="AV5qR96ply4appD7XXTd-14" target="AV5qR96ply4appD7XXTd-20">
          <mxGeometry relative="1" as="geometry" />
        </mxCell>
        <mxCell id="AV5qR96ply4appD7XXTd-14" value="Вывод результатов" style="rounded=0;whiteSpace=wrap;html=1;" vertex="1" parent="1">
          <mxGeometry x="354" y="720" width="120" height="60" as="geometry" />
        </mxCell>
        <mxCell id="AV5qR96ply4appD7XXTd-17" value="Да" style="text;html=1;align=center;verticalAlign=middle;whiteSpace=wrap;rounded=0;" vertex="1" parent="1">
          <mxGeometry x="190" y="585" width="60" height="30" as="geometry" />
        </mxCell>
        <mxCell id="AV5qR96ply4appD7XXTd-18" value="Нет" style="text;html=1;align=center;verticalAlign=middle;whiteSpace=wrap;rounded=0;" vertex="1" parent="1">
          <mxGeometry x="394" y="585" width="60" height="30" as="geometry" />
        </mxCell>
        <mxCell id="AV5qR96ply4appD7XXTd-20" value="Конец" style="ellipse;whiteSpace=wrap;html=1;" vertex="1" parent="1">
          <mxGeometry x="354" y="820" width="120" height="80" as="geometry" />
        </mxCell>
      </root>
    </mxGraphModel>
  </diagram>
</mxfile>
